<svg xmlns="http://www.w3.org/2000/svg" xmlns:xlink="http://www.w3.org/1999/xlink" version="1.1" id="Layer_1" x="0px" y="0px" width="100px" height="100px" viewBox="5.0 -10.0 100.0 135.0" enable-background="new 0 0 100 100" xml:space="preserve">
<g>
	<path d="M30.079,56.748c0,0-6.749-8.999-2.25-20.249c4.501-11.25,15.751-11.25,13.5-24.751c0,0,12.63,9.366,9,20.254   c-2.247,6.748-9,8.999-9,17.998c6.752-11.25,18.002-15.752,18.002-29.248C59.331,11.748,52.579,5,52.579,5   S66.633,9.419,68.33,22.998c2.251,18.003-15.751,20.254-22.5,33.75H30.079z"/>
	<rect x="43.604" y="73.364" width="8.999" height="21.636"/>
	<rect x="30.079" y="61.25" width="36" height="8.999"/>
	<path d="M50.328,56.748c6.752-11.25,18.002-11.25,22.5-22.5c0,0,4.501,13.501-6.749,22.5H50.328z"/>
</g>
</svg>